
  <svg
    width="1000"
    height="1000"
    viewBox="0 0 1000 1000"
    xmlns="http://www.w3.org/2000/svg"
  >
    <defs>
      
      
      <linearGradient id="linearGradientId" gradientTransform="rotate(225 0.5 0.5)">
      <stop offset="0%"  stop-color="#5bb0ff" />
			<stop offset="100%"  stop-color="#006fcc" />
    </linearGradient>
      
      
      
      
      <clipPath id="shape">
        <path fill="currentColor" d="M812.5,631.5Q862,763,707.5,712.5Q553,662,484.5,710.5Q416,759,361.5,699.5Q307,640,192,570Q77,500,210.5,443Q344,386,390.5,346Q437,306,530,214Q623,122,690,217.5Q757,313,760,406.5Q763,500,812.5,631.5Z"></path>
      </clipPath>
    </defs>
  
    

    <g  clip-path="url(#shape)">
      <path fill="url(#linearGradientId)" d="M812.5,631.5Q862,763,707.5,712.5Q553,662,484.5,710.5Q416,759,361.5,699.5Q307,640,192,570Q77,500,210.5,443Q344,386,390.5,346Q437,306,530,214Q623,122,690,217.5Q757,313,760,406.5Q763,500,812.5,631.5Z" />
    </g>

    
  
  </svg>